<?xml version="1.0" standalone="no"?>
<!DOCTYPE svg PUBLIC "-//W3C//DTD SVG 20010904//EN"
 "http://www.w3.org/TR/2001/REC-SVG-20010904/DTD/svg10.dtd">
<svg version="1.0" xmlns="http://www.w3.org/2000/svg"
 width="2000.000000pt" height="2000.000000pt" viewBox="0 0 2000.000000 2000.000000"
 preserveAspectRatio="xMidYMid meet">
<metadata>
Created by potrace 1.14, written by Peter Selinger 2001-2017
</metadata>
<g transform="translate(0.000000,2000.000000) scale(0.100000,-0.100000)"
fill="#000000" stroke="none">
<path d="M9026 15249 c-162 -22 -333 -107 -450 -224 -188 -188 -288 -453 -391
-1030 -20 -110 -44 -241 -55 -291 -19 -92 -55 -200 -68 -208 -4 -3 -86 -12
-182 -21 -488 -46 -910 -129 -1080 -213 -244 -120 -339 -386 -221 -619 142
-283 573 -449 1301 -503 80 -6 167 -12 193 -14 31 -2 55 -10 70 -24 12 -11 49
-36 81 -54 l59 -33 27 -135 c73 -368 153 -578 297 -779 281 -393 716 -645
1213 -702 146 -16 434 -6 564 20 160 33 291 78 441 151 284 138 490 318 664
578 126 187 201 396 272 758 19 101 24 113 48 124 14 6 52 30 84 51 62 43 66
44 227 54 564 35 967 139 1195 309 323 242 289 654 -68 825 -177 86 -623 168
-1174 217 l-71 6 -20 46 c-28 67 -46 146 -92 407 -124 700 -244 981 -496 1161
-145 104 -286 146 -484 147 -147 0 -230 -14 -385 -64 -353 -112 -636 -112
-988 1 -182 58 -364 79 -511 59z m289 -261 c28 -5 100 -25 160 -44 383 -120
729 -120 1115 1 153 48 213 58 325 58 174 -1 301 -56 414 -179 125 -137 207
-358 285 -773 19 -102 33 -188 31 -191 -2 -3 -81 0 -177 6 -739 51 -1485 62
-2238 34 -258 -10 -742 -37 -787 -44 -29 -4 -29 -2 3 170 51 281 117 512 184
643 135 268 380 382 685 319z m1505 -1339 c311 -12 409 -17 654 -35 109 -8
204 -14 211 -14 14 0 38 -71 27 -81 -4 -3 -50 -3 -102 1 -52 5 -144 11 -205
14 -60 4 -146 9 -190 11 -392 24 -1569 36 -1877 21 -62 -3 -178 -8 -258 -11
-181 -7 -654 -33 -699 -40 l-33 -4 7 37 c3 20 10 40 13 44 6 6 73 12 372 33
585 41 1413 51 2080 24z m5 -340 c517 -17 1239 -67 1575 -110 285 -35 622
-105 724 -149 61 -26 125 -86 149 -139 46 -105 -27 -227 -193 -319 -161 -89
-539 -176 -864 -198 -88 -6 -99 -5 -93 8 18 49 29 149 25 228 l-5 90 33 0 c19
0 109 -7 200 -15 92 -9 168 -14 169 -13 3 4 23 242 21 245 -3 4 -313 31 -546
48 -1339 99 -2780 95 -4095 -10 -99 -7 -222 -17 -273 -21 l-92 -7 5 -46 c4
-25 9 -82 13 -126 l7 -79 49 3 c27 1 56 4 65 6 9 1 64 6 122 10 l106 7 -9 -68
c-8 -69 -4 -134 13 -209 4 -22 9 -43 9 -47 1 -32 -490 37 -705 99 -345 99
-518 270 -435 432 42 83 120 125 331 175 253 62 531 101 944 136 212 17 313
25 625 45 600 39 1415 49 2125 24z m-180 -510 c231 -6 432 -12 448 -13 15 -2
77 -3 137 -4 l110 -2 0 -125 0 -125 125 0 125 0 0 110 c0 81 3 112 13 116 7 2
69 1 137 -3 l125 -8 18 -50 c12 -36 16 -70 13 -120 -10 -181 -125 -316 -288
-339 -27 -4 -48 -8 -48 -9 0 -28 -68 -379 -89 -464 -58 -228 -105 -345 -189
-471 -241 -362 -604 -581 -1059 -642 -127 -17 -378 -7 -504 19 -284 61 -531
188 -725 374 -211 201 -316 387 -393 693 -30 116 -73 338 -87 440 -6 52 -7 52
-48 58 -83 13 -136 37 -184 84 -108 105 -147 282 -90 400 15 29 6 27 161 37
l117 7 0 -116 0 -116 125 0 125 0 0 119 c0 66 3 122 8 124 16 10 802 32 1232
35 146 1 454 -3 685 -9z"/>
<path d="M6300 12035 c0 -179 0 -328 0 -331 0 -3 55 -5 123 -5 l122 0 3 330 2
331 -125 0 -125 0 0 -325z"/>
<path d="M5900 11770 l0 -330 125 0 125 0 0 330 0 330 -125 0 -125 0 0 -330z"/>
<path d="M6690 11770 l0 -330 125 0 125 0 0 330 0 330 -125 0 -125 0 0 -330z"/>
<path d="M6300 11260 l0 -280 125 0 125 0 0 280 0 280 -125 0 -125 0 0 -280z"/>
<path d="M5846 11125 c-12 -167 23 -288 106 -360 69 -59 235 -131 345 -149
l41 -7 6 78 c4 43 9 99 12 125 l6 47 -44 11 c-66 17 -168 61 -197 86 -25 22
-26 25 -24 132 l2 109 -82 6 c-45 4 -100 7 -123 7 l-41 0 -7 -85z"/>
<path d="M6797 11203 l-59 -4 7 -73 c11 -112 1 -152 -46 -186 -22 -16 -80 -41
-130 -57 -85 -26 -89 -29 -85 -53 3 -14 8 -69 12 -122 4 -67 10 -98 19 -98 35
0 176 44 250 79 107 50 177 114 204 187 26 68 35 162 26 258 l-7 76 -66 -2
c-37 -1 -93 -3 -125 -5z"/>
<path d="M5846 10569 c-11 -151 14 -262 77 -332 59 -67 204 -138 347 -171 35
-8 65 -14 66 -13 5 5 23 241 19 245 -3 3 -43 17 -89 32 -99 32 -152 62 -163
93 -4 12 -6 66 -5 119 l2 97 -42 5 c-24 3 -80 7 -124 8 l-82 3 -6 -86z"/>
<path d="M6890 10653 c-25 -2 -68 -5 -96 -8 l-51 -6 1 -108 c1 -92 -2 -112
-17 -129 -22 -24 -99 -59 -182 -82 -53 -15 -60 -20 -59 -41 4 -76 16 -224 18
-226 1 -1 40 7 86 18 101 24 251 93 304 140 80 70 117 205 101 373 -7 82 4 74
-105 69z"/>
<path d="M9045 10208 c-954 -124 -1667 -411 -2106 -848 -99 -98 -219 -244
-219 -267 0 -5 46 -39 103 -75 l103 -65 38 53 c89 128 266 292 444 410 89 60
302 178 340 189 l22 6 0 -675 0 -676 -95 0 -95 0 2 -1101 3 -1100 123 0 122 0
3 973 2 973 2198 3 2197 2 0 -975 0 -975 125 0 125 0 0 1100 0 1100 -95 0 -95
0 0 675 c0 452 3 675 10 675 17 0 189 -89 285 -147 199 -121 391 -289 503
-438 67 -90 133 -218 165 -321 30 -95 23 -31 177 -1479 67 -621 122 -1130 123
-1131 4 -4 238 23 243 28 9 10 -266 2523 -285 2598 -132 518 -611 949 -1364
1229 -293 109 -767 217 -1135 259 l-74 9 -410 -436 c-226 -240 -430 -456 -453
-479 l-42 -44 -452 479 c-249 263 -455 479 -459 479 -4 1 -38 -3 -77 -8z m486
-789 l502 -531 27 29 c15 15 224 237 465 493 241 256 454 482 475 503 l37 39
74 -11 c41 -7 102 -16 137 -22 l62 -11 0 -824 0 -824 -1277 2 -1278 3 -3 818
c-2 708 0 818 12 823 16 6 220 42 248 43 11 1 216 -209 519 -530z m-1031 -364
l0 -795 -237 2 -238 3 -3 721 c-2 570 1 724 10 731 26 21 398 131 446 132 l22
1 0 -795z m3193 769 c119 -30 256 -70 310 -91 l37 -15 0 -729 0 -729 -240 0
-240 0 0 795 c0 715 2 795 16 795 8 0 61 -12 117 -26z"/>
<path d="M5848 10059 c-9 -83 -1 -215 17 -274 31 -110 147 -197 343 -259 129
-41 129 -41 137 52 3 42 8 97 11 122 l5 45 -67 19 c-94 27 -181 72 -191 99 -4
12 -7 68 -5 125 l2 102 -57 0 c-32 0 -88 3 -124 6 l-67 7 -4 -44z"/>
<path d="M6827 10093 l-89 -4 6 -87 c9 -139 4 -150 -84 -194 -41 -21 -99 -43
-128 -49 -49 -12 -53 -14 -48 -38 3 -14 8 -70 12 -125 l7 -98 43 6 c95 13 257
80 335 139 87 67 127 189 116 361 -4 50 -6 92 -7 94 0 1 -17 1 -37 0 -21 -1
-78 -4 -126 -5z"/>
<path d="M6300 9333 c0 -4 0 -164 0 -355 0 -192 -3 -348 -7 -348 -5 0 -24 31
-44 68 -66 121 -162 245 -289 373 -114 115 -281 259 -300 259 -7 0 -150 -184
-150 -194 0 -2 42 -38 93 -79 320 -260 503 -544 608 -941 16 -61 29 -120 29
-131 -1 -15 -25 -32 -108 -72 -188 -91 -439 -273 -499 -362 -66 -98 -106 -417
-107 -851 -1 -432 40 -704 134 -908 42 -89 132 -181 229 -230 94 -49 144 -61
291 -70 l115 -7 3 -307 2 -308 125 0 125 0 0 314 0 313 51 6 c63 8 149 46 205
93 87 71 133 224 102 340 l-14 51 37 42 c57 63 82 138 82 241 1 67 -4 96 -22
136 l-23 52 31 43 c42 58 61 127 61 225 0 88 -21 165 -59 214 -19 24 -19 25
-1 60 25 50 43 155 35 209 -31 203 -158 301 -392 301 -51 0 -93 2 -93 4 0 30
47 232 69 297 56 165 119 265 242 385 90 86 162 143 277 219 70 47 72 49 58
71 -9 12 -38 58 -67 103 -28 45 -54 81 -58 81 -13 0 -211 -139 -286 -200 -39
-32 -108 -97 -153 -144 l-82 -87 -2 548 -3 548 -122 3 c-68 1 -123 -1 -123 -5z
m-110 -1883 l0 -200 258 6 c178 4 266 3 285 -5 58 -23 70 -122 19 -161 -23
-19 -41 -20 -288 -20 l-264 0 0 -125 0 -125 284 0 285 0 20 -26 c24 -30 28
-97 10 -137 -20 -44 -45 -48 -311 -47 l-249 1 0 -123 0 -123 243 -5 c134 -3
249 -9 255 -13 7 -4 17 -25 23 -47 12 -46 -5 -101 -38 -119 -13 -7 -101 -11
-236 -11 l-216 0 0 -125 0 -125 179 0 c150 0 182 -3 195 -16 43 -42 24 -107
-39 -139 -37 -18 -60 -20 -275 -20 -221 0 -238 2 -292 23 -35 14 -76 41 -103
68 -37 38 -49 60 -75 141 -71 221 -101 562 -81 917 11 208 30 375 52 469 10
41 21 56 83 109 76 66 242 178 263 178 10 0 13 -44 13 -200z"/>
<path d="M8050 7695 l0 -125 210 0 210 0 0 125 0 125 -210 0 -210 0 0 -125z"/>
<path d="M11590 7695 l0 -125 210 0 210 0 0 125 0 125 -210 0 -210 0 0 -125z"/>
</g>
</svg>
